<?xml version="1.0" encoding="UTF-8"?><svg id="Layer_1" xmlns="http://www.w3.org/2000/svg" viewBox="0 0 1920 247.33"><defs><style>.cls-1,.cls-2{fill:#1d1c39;}.cls-2,.cls-3{fill-rule:evenodd;}.cls-3{fill:#ff22b1;}</style></defs><g id="teamwork-logo"><path class="cls-2" d="m97.1,99.68c11.79,0,18.55-6.43,18.55-17.63,0-10.54-7.27-17.63-18.09-17.63h-26.74v-19.8c0-14.28-10.25-21.75-20.38-21.75s-20.38,7.47-20.38,21.75v136.57c0,32.82,13.08,47.46,42.41,47.46,15.9,0,24.98-4.08,31.74-8.06,5.16-2.87,7-8.96,7-13.7,0-8.78-5.87-18.56-14.3-18.56-1.17,0-2.35.2-3.62.62-.44.18-.94.4-1.49.66-2.22,1.02-5.25,2.41-9.7,2.41-5.26,0-11.29-1.86-11.29-16.34v-76.01h26.29Z"/><path class="cls-2" d="m191.36,94.16c5.16-1.88,10.29-2.83,15.25-2.83,16.96,0,28.82,10.96,34.69,21.87l-75.95,27.64c-3.47-16.42,1.3-37.69,26.01-46.69m81.58,75.82c-4.03,0-8.03,1.48-11.55,4.27l-.57.51c-7.12,6.35-15.3,11.15-25,14.68-7.25,2.64-14.35,3.98-21.11,3.98-17.61,0-32.42-9.41-40.01-25.3l93.71-34.1c14.75-5.37,16.74-16.29,13.67-24.71-11.44-31.42-38.39-50.94-70.33-50.94-10.42,0-21.25,2.02-32.19,6-24.02,8.74-41.13,24.51-49.49,45.6-7.57,19.11-7.39,41.58.51,63.28,12.78,35.11,39.95,55.24,74.57,55.24,6.55,0,13.41-.73,20.39-2.18,6.32-1.31,12.2-2.97,17.96-5.07,15.68-5.7,29.95-13.94,41.29-23.82l.1-.09.09-.1c3.76-4.27,5.26-9.34,4.22-14.3-1.55-7.39-8.52-12.96-16.23-12.96"/><path class="cls-2" d="m430.19,144.02c0,23.9-13.57,48.01-43.88,48.01-25.97,0-43.42-19.11-43.42-47.55s17.64-48.46,43.88-48.46c21.61,0,43.42,14.85,43.42,48.01m21.3-84.64c-12.08,0-20.84,8.57-20.84,20.38v.65c-12-13.61-29.79-21.03-50.76-21.03-47.33,0-79.13,34.01-79.13,84.64s31.25,84.64,77.76,84.64c22.8,0,41.38-8.28,53.06-23.46v3.08c0,15.02,10.29,20.38,19.92,20.38,12.01,0,19.47-7.81,19.47-20.38V79.76c0-12.38-7.64-20.38-19.47-20.38"/><path class="cls-2" d="m685.73,59.38c-23.94,0-42.45,10.6-51.49,29.26-9.91-19.17-27.72-29.26-51.79-29.26-17.92,0-33.94,7.1-43.43,18.88-.29-10.98-8.77-18.88-20.38-18.88-10.37,0-20.84,6.59-20.84,21.3v127.6c0,13.15,7.24,20.38,20.38,20.38s20.84-7.62,20.84-20.38v-76.2c0-25.15,11.21-37.91,33.31-37.91s30.58,12.05,30.58,41.59v72.06c0,13.44,7.24,20.84,20.38,20.84s20.84-7.6,20.84-20.84v-71.15c0-28.6,11.05-42.5,33.79-42.5,21.42,0,30.57,12.71,30.57,42.5v71.15c0,13.44,7.24,20.84,20.38,20.84s20.84-7.6,20.84-20.84v-71.15c0-51.29-21.53-77.3-63.99-77.3"/><path class="cls-2" d="m998.46,59.38c-9.05,0-16.64,6.52-20.26,17.41l-34.81,98.33-34.36-97.86c-3.73-10.73-8.45-17.88-19.35-17.88-11.65,0-15.95,6.29-19.8,17.87l-34.37,97.87-34.79-98.29c-3.64-10.92-11.22-17.45-20.27-17.45s-17.63,7.11-17.63,19c0,3.81.87,7.61,2.9,12.67l46.82,119.36c4.48,10.95,10.1,18.24,22.98,18.24,14.1,0,19.46-9.79,22.56-18.31l31.58-86.09,30.69,86.04c4.06,12.19,11.81,18.37,23.03,18.37s18.6-6.14,23.46-18.28l46.31-119.71c2-4.5,2.94-8.41,2.94-12.3,0-10.83-7.58-19-17.64-19"/><path class="cls-2" d="m1103.28,196.16c-27.07,0-43.88-19.98-43.88-52.14s17.22-51.22,43.88-51.22,43.88,20.11,43.88,51.22-17.22,52.14-43.88,52.14m0-136.32c-26.73,0-48.88,8.78-64.03,25.39-13.58,14.89-21.07,35.77-21.07,58.79s7.48,44.02,21.06,59.02c15.18,16.76,37.32,25.62,64.04,25.62,62.81,0,85.1-45.6,85.1-84.64s-22.29-84.18-85.1-84.18"/><path class="cls-2" d="m1287.95,59.38c-16.07,0-30.79,6.76-41.19,18.74-.84-10.47-9.63-18.74-20.31-18.74-11.43,0-20.39,8.95-20.39,20.38v128.52c0,13.38,10.25,20.38,20.39,20.38s20.38-7,20.38-20.38v-61.05c0-36.87,10.1-52.6,33.78-52.6,3.78,0,5.97.51,8.08,1,1.87.43,3.64.84,6.16.84,9.72,0,16.25-7.27,16.25-18.09,0-11.55-9.08-19-23.13-19"/><path class="cls-2" d="m1405.07,144.45l44.53-46.31c6.19-6.2,12.04-12.05,12.04-20.22,0-10.57-7.97-18.55-18.54-18.55-8.28,0-14.16,6.36-19.84,12.51l-53.87,55.67V43.24c0-11.24-9.14-20.38-20.38-20.38s-20.39,9.14-20.39,20.38v165.04c0,11.24,9.15,20.38,20.39,20.38s20.38-9.14,20.38-20.38v-50.06l53.92,56.08c.95.95,1.88,1.92,2.81,2.89,5.41,5.64,11,11.48,19.28,11.48,9.8,0,18.09-8.28,18.09-18.09,0-7.12-4.83-12.55-9.77-17.49l-48.63-48.63h-.02Z"/><path class="cls-3" d="m1513.61,175.64c-14.6,0-26.48,11.88-26.48,26.49s11.88,26.49,26.48,26.49,26.49-11.88,26.49-26.49-11.88-26.49-26.49-26.49"/><path class="cls-1" d="m1567.44,182.45c0-6.89,1.06-13.2,3.17-18.94,2.11-5.73,4.98-10.6,8.61-14.59,3.62-3.99,7.94-7.09,12.95-9.33,5.01-2.23,10.42-3.35,16.22-3.35,9.06,0,16.67,2.3,22.83,6.89,6.16,4.59,10.39,10.51,12.68,17.76.6,1.57.66,3.05.18,4.44s-1.75,2.08-3.81,2.08h-2.54c-1.33,0-2.45-.3-3.35-.91-.91-.6-1.66-1.69-2.26-3.26-1.57-4.71-4.32-8.61-8.25-11.69-3.93-3.08-8.97-4.62-15.13-4.62-7.85,0-14.56,3.29-20.11,9.88-5.56,6.59-8.34,15.13-8.34,25.64s2.75,19.06,8.25,25.64c5.49,6.58,12.23,9.87,20.2,9.87,6.4,0,11.51-1.54,15.31-4.62,3.8-3.08,6.49-6.98,8.06-11.69.6-1.57,1.36-2.66,2.26-3.26.91-.6,2.02-.91,3.35-.91h2.54c2.05,0,3.32.7,3.81,2.08.48,1.39.42,2.87-.18,4.44-2.3,7.25-6.52,13.17-12.68,17.76s-13.77,6.88-22.83,6.88c-12.56,0-22.53-4.23-29.9-12.68-7.37-8.45-11.05-19.63-11.05-33.52h.01Z"/><path class="cls-1" d="m1658.4,182.44c0-6.89,1.06-13.2,3.17-18.94,2.11-5.73,5.04-10.6,8.79-14.59,3.74-3.99,8.18-7.09,13.32-9.33,5.13-2.23,10.72-3.35,16.76-3.35,12.68,0,22.86,4.23,30.53,12.68,7.67,8.46,11.5,19.63,11.5,33.52,0,6.89-1.06,13.2-3.17,18.94-2.11,5.74-5.04,10.6-8.79,14.59-3.75,3.99-8.18,7.1-13.32,9.33-5.14,2.23-10.72,3.35-16.76,3.35-12.68,0-22.86-4.23-30.53-12.68s-11.51-19.63-11.51-33.52h.01Zm12.86,0c0,10.51,2.72,19.06,8.15,25.64,5.44,6.58,12.44,9.87,21.02,9.87s15.28-3.29,20.84-9.87c5.56-6.58,8.34-15.13,8.34-25.64s-2.72-19.51-8.15-25.91c-5.44-6.4-12.44-9.6-21.02-9.6s-15.28,3.29-20.84,9.88c-5.56,6.59-8.34,15.13-8.34,25.64h0Z"/><path class="cls-1" d="m1761.13,223.57v-78.46c0-1.57.39-2.78,1.18-3.62.78-.84,1.96-1.27,3.53-1.27h2.17c1.57,0,2.78.43,3.62,1.27.84.85,1.27,2.06,1.27,3.62v10.69h.54c2.54-5.92,6.31-10.33,11.32-13.23,5.01-2.9,10.6-4.35,16.76-4.35s11.93,1.57,16.94,4.71c5.01,3.14,8.67,8.15,10.96,15.04,3.02-7,7.16-12.05,12.41-15.13,5.26-3.08,11.2-4.62,17.85-4.62,4.11,0,8,.63,11.69,1.9,3.68,1.27,6.88,3.29,9.6,6.07,2.72,2.78,4.86,6.4,6.43,10.87,1.57,4.47,2.36,9.91,2.36,16.31v50.19c0,1.57-.45,2.81-1.36,3.72s-2.15,1.36-3.72,1.36h-2.17c-1.69,0-2.96-.45-3.81-1.36-.85-.91-1.27-2.14-1.27-3.72v-48.56c0-9.42-1.78-16.13-5.34-20.11-3.56-3.99-8.55-5.98-14.95-5.98-6.89,0-12.86,2.9-17.94,8.7-5.07,5.8-7.61,13.95-7.61,24.46v41.49c0,1.57-.45,2.81-1.36,3.72s-2.15,1.36-3.71,1.36h-2.17c-1.69,0-2.96-.45-3.8-1.36-.85-.91-1.27-2.14-1.27-3.72v-48.56c0-9.42-1.84-16.13-5.53-20.11-3.69-3.99-8.61-5.98-14.77-5.98-6.89,0-12.86,2.9-17.94,8.7-5.07,5.8-7.61,14.02-7.61,24.64v41.31c0,1.57-.45,2.81-1.36,3.72s-2.15,1.36-3.71,1.36h-2.17c-1.69,0-2.96-.45-3.81-1.36-.85-.91-1.27-2.14-1.27-3.72h.02Z"/></g></svg>